<?xml version="1.0" encoding="UTF-8"?>
<svg id="Layer_1" data-name="Layer 1" xmlns="http://www.w3.org/2000/svg" viewBox="0 0 321.51 409.87">
  <defs>
    <style>
        path { fill: #000; }
        @media (prefers-color-scheme: dark) {
            path { fill: #FFF; }
        }
    </style>
  </defs>
  <path class="cls-1" d="M59.01,121.52v-44.57h99.92V0h48.25c.09,2,.26,3.88.26,5.76,0,21.49.14,42.99-.15,64.48-.07,5.01,1.12,6.66,6.38,6.63,30.73-.2,61.46-.04,92.19,0,1.73,0,3.46.15,5.47.24v44.37c-2.01,0-4.03,0-6.06,0-30.55,0-61.11.11-91.66-.1-5.02-.04-6.41,1.61-6.21,6.4.34,7.93.09,15.88.09,24.44h92.47v45.38c-2.03,0-3.91,0-5.79,0-26.65-.03-53.29-.05-79.94-.09-6.84,0-6.69-.02-6.88,7.03-.73,26.08-.35,52.27-2.66,78.21-3.14,35.23-15.7,67.01-41.72,92.17-21.28,20.58-47.38,31.04-76.45,33.94-23.69,2.36-47.23.74-69.98-7.06-5.48-1.88-10.7-4.47-16.55-6.94,7.54-14.52,14.7-28.32,21.27-40.96,13.19,3.67,25.41,8.48,38.06,10.33,45.15,6.61,80.91-17.27,92-61.54,3.64-14.54,5.42-29.72,6.39-44.71,1.2-18.59.67-37.28.85-55.93.01-1.38-.27-2.76-.48-4.67H59.1v-45.05c1.97-.09,3.85-.26,5.72-.26,29.49,0,58.97-.05,88.46.13,4.29.03,6.03-.95,5.74-5.56-.4-6.37-.38-12.8-.04-19.17.24-4.57-1.06-6.13-5.9-6.09-29.31.23-58.62.13-87.93.14-1.91,0-3.83,0-6.14,0Z"/>
  <path class="cls-1" d="M321.51,373.96c.08,12.94-9.87,23.23-22.54,23.31-12.76.09-23.01-10.13-22.97-22.88.05-13.34,9.94-23.23,23.18-23.19,12.75.04,22.25,9.72,22.33,22.75Z"/>
</svg>