<?xml version="1.0" encoding="UTF-8"?>
<svg xmlns="http://www.w3.org/2000/svg" version="1.1" viewBox="0 0 321.5 409.9">
  <!-- Generator: Adobe Illustrator 28.6.0, SVG Export Plug-In . SVG Version: 1.2.0 Build 709)  -->
  <g>
    <g id="Layer_1">
      <path fill="#c3c7cf" d="M58.5,185.5v-19.5h-29.2v-19.5H0v-19.5h48.7v19.5h19.5v19.5h19.5v19.5h-29.2ZM48.8,360.7v-19.4h-19.5v-19.5h39v19.5h58.4v19.4H48.8ZM116.9,107.6v-19.5h-29.1v-19.5h-29.2v-19.5h48.7v19.5h19.4v19.5h19.5v19.5h-29.2ZM87.8,205v-19.5h19.5v19.5h-19.5ZM126.6,341.3v-19.5h39v19.5h-39ZM146.1,127v-19.4h19.5v19.4h-19.5ZM165.6,321.8v-19.5h19.5v-19.5h19.5v-19.5h19.5v-19.5h19.4v-38.9h19.5v-39h19.5v-58.4h39v58.4h-19.5v39h-19.5v38.9h-19.5v19.5h-19.5v19.5h-19.4v19.5h-19.5v19.5h-39Z"/>
    </g>
  </g>
</svg>